<?xml version="1.0" encoding="UTF-8" standalone="no"?>
<!DOCTYPE svg PUBLIC "-//W3C//DTD SVG 1.1//EN" "http://www.w3.org/Graphics/SVG/1.1/DTD/svg11.dtd">
<svg width="100%" height="100%" viewBox="0 0 512 512" version="1.1" xmlns="http://www.w3.org/2000/svg" xmlns:xlink="http://www.w3.org/1999/xlink" xml:space="preserve" xmlns:serif="http://www.serif.com/" style="fill-rule:evenodd;clip-rule:evenodd;stroke-linejoin:round;">
    <g transform="matrix(6.68464e-17,1.09168,-1.26108,7.72191e-17,581.36,-46.9424)">
        <path d="M512,136.2L512,379.8C512,424.615 469.97,461 418.2,461L136.8,461C85.03,461 43,424.615 43,379.8L43,136.2C43,91.385 85.03,55 136.8,55L418.2,55C469.97,55 512,91.385 512,136.2Z" style="fill:url(#_Linear1);"/>
    </g>
    <g transform="matrix(0.256,0,0,0.256,256,256)">
        <g transform="matrix(1,0,0,1,-1000,-1000)">
            <g transform="matrix(2,0,0,2,7.29802e-05,-9.35088e-05)">
                <g>
                    <g>
                        <g>
                            <g>
                                <path d="M652.93,387.93C654.75,387.443 656.453,386.957 658.04,386.47C659.647,385.983 661.17,385.463 662.61,384.91C662.983,384.763 663.983,384.41 665.61,383.85C666.223,383.637 666.573,383.517 666.66,383.49C671.993,381.817 675.17,380.78 676.19,380.38C676.522,380.254 676.865,380.17 677.21,380.13C680.823,379.73 683.68,379.14 685.78,378.36C686.025,378.267 686.278,378.21 686.53,378.19C689.963,377.85 693.313,377.333 696.58,376.64C698.793,376.167 701.347,375.873 704.24,375.76C707.713,375.627 710.3,375.553 712,375.54C725.933,375.447 739.2,377.57 751.8,381.91C756.72,383.603 760.44,386.257 762.96,389.87C766.22,394.57 764.3,402.63 762.31,407.55C757.243,420.123 749.83,431.053 740.07,440.34C729.78,450.14 718.48,457.83 705.76,466.01C701.807,468.55 699.353,470.49 698.4,471.83C693.53,478.71 696.54,487.9 703.4,492.4C707.213,494.893 710.817,496.857 714.21,498.29C730.18,505.04 744.12,510.75 757.32,517.49C765.15,521.49 769.85,523.62 775.07,527.96C776.65,529.28 776.673,530.753 775.14,532.38C771.407,536.327 767.883,539.64 764.57,542.32C758.03,547.613 751.51,552.927 745.01,558.26C743.17,559.773 741.63,561.587 740.39,563.7C740.176,564.067 740.276,564.541 740.62,564.79L767.83,584.73C768.791,585.437 770.12,585.4 771.04,584.64C779.593,577.58 787.997,569.873 796.25,561.52C803.73,553.96 809.95,546.13 813.16,536.88C817.06,525.66 811.66,514.61 803.13,507.09C793.41,498.523 783.107,491.667 772.22,486.52C766.413,483.773 761.043,481.32 756.11,479.16C755.23,478.773 754.26,478.263 753.2,477.63C752.863,477.428 752.657,477.063 752.657,476.67C752.657,476.315 752.825,475.981 753.11,475.77C764.61,467.2 773.52,457.08 782.69,444.96C793.88,430.18 802.86,410.63 801.51,392.04C800.99,384.913 799.22,378.99 796.2,374.27C789.953,364.503 781.143,357.07 769.77,351.97C751.06,343.59 732.92,340.38 711.95,339.75C706.79,339.6 702.68,340.06 698.3,339.71C697.946,339.685 697.622,339.501 697.42,339.21C689.353,328.037 679.887,318.043 669.02,309.23C658.54,300.737 647.25,293.55 635.15,287.67C631.73,286.01 626.58,284.15 622.35,282.34C621.949,282.167 621.728,281.73 621.83,281.31C627.117,259.423 624.78,238.447 614.82,218.38C606.45,201.53 591.43,185.77 573.25,180.35C559.15,176.15 544.42,180.73 538.21,194.18C537.097,196.58 536.067,201.217 535.12,208.09C534.087,215.603 532.84,222.28 531.38,228.12C530.773,230.553 530.15,232.313 529.51,233.4C529.238,233.859 528.744,234.144 528.21,234.15C524.71,234.197 521.56,234.25 518.76,234.31C502.207,234.683 486.447,238.18 471.48,244.8C471.446,244.815 471.41,244.822 471.373,244.822C471.225,244.822 471.103,244.7 471.103,244.552C471.103,244.531 471.105,244.51 471.11,244.49C473.23,235.84 471.47,226.84 464.64,220.78C454.42,211.71 437.18,213.6 425.15,217.41C407.67,222.937 391.367,231.143 376.24,242.03C369.773,246.677 363.5,251.31 357.42,255.93C355.32,257.53 352.4,260.27 349.63,262.04C349.474,262.14 349.292,262.193 349.107,262.193C348.683,262.193 348.305,261.915 348.18,261.51C344.81,250.44 341.86,238.86 341.48,227.87C341.03,215.03 341.29,202.48 328.53,195.19C321.5,191.17 310.67,191.1 303.18,193.97C285.82,200.61 270.98,214.93 261.63,230.78C246.81,255.88 242.08,288 252.51,315.7C252.761,316.361 252.509,317.116 251.91,317.5C226.77,333.76 205.763,354.223 188.89,378.89C182.923,387.617 177.85,396.703 173.67,406.15C169.33,415.977 166.66,422.393 165.66,425.4C157.55,449.75 154.5,477.25 155.07,503.06C155.103,504.727 154.563,506.123 153.45,507.25C126.02,534.95 120.96,581.48 133.07,617.07C138.91,634.23 148.58,649.473 162.08,662.8C166.2,666.87 172.89,671.92 176.81,674.68C180.563,677.333 187.043,681.123 196.25,686.05C200.623,688.383 205.987,690.683 212.34,692.95C222.653,696.623 229.14,698.793 231.8,699.46C241.34,701.85 250.87,704.84 261.31,707.48C269.263,709.487 281.627,712.463 298.4,716.41C307.333,718.517 315.177,720.19 321.93,721.43C330.357,722.977 338.187,724.707 345.42,726.62C349.387,727.667 352.227,729.38 353.94,731.76C357.967,737.36 360.937,741.54 362.85,744.3C363.363,745.04 363.873,745.65 364.38,746.13C364.745,746.473 365.228,746.664 365.729,746.664C366.352,746.664 366.939,746.369 367.31,745.87C368.837,743.797 369.963,741.393 370.69,738.66C371.983,733.833 373.353,728.623 374.8,723.03C375.207,721.437 375.923,719.687 376.95,717.78C377.272,717.179 377.794,716.715 378.42,716.47L386.16,713.38C386.162,713.379 386.164,713.378 386.166,713.377C386.685,713.168 386.941,712.573 386.734,712.059C386.732,712.056 386.731,712.053 386.73,712.05C384.98,707.76 380.64,704.43 376.78,701.45C373.19,698.68 368.87,695.08 365.25,693.77C362.097,692.617 358.023,691.753 353.03,691.18C336.39,689.267 322.317,687.203 310.81,684.99C286.07,680.22 277.46,679.03 252.68,674.63C245.54,673.357 236.287,670.603 224.92,666.37C212.35,661.69 200.4,654.27 190.4,646.09C187.7,643.89 184.933,640.843 182.1,636.95C164.15,612.36 157.74,580.29 167.81,551.36C170.07,544.88 173.12,539.163 176.96,534.21C181.367,528.53 184.093,524.927 185.14,523.4C189.43,517.14 190.51,511.42 190.97,503.76C191.337,497.587 191.71,491.42 192.09,485.26C192.83,473.14 194.617,461.16 197.45,449.32C203.74,423.07 216.61,399.45 234.23,379.97C246.137,366.803 258.553,355.803 271.48,346.97C288.62,335.263 307.633,325.967 328.52,319.08C333.95,317.29 339.77,316.53 344.75,314.24C352.65,310.62 357.11,303.6 363.04,297.68C378.407,282.353 395.433,269.423 414.12,258.89C421.487,254.737 428.973,251.783 436.58,250.03C436.656,250.013 436.732,250.001 436.809,249.994C437.776,249.904 438.645,250.621 438.734,251.583C438.741,251.661 438.743,251.741 438.74,251.82C438.673,253.16 438.33,254.547 437.71,255.98C433.8,264.98 427.92,278.21 434.99,286.21C437.94,289.54 441.92,290.42 446.03,289.28C450.39,288.08 453.253,287.203 454.62,286.65C465.58,282.183 475.907,278.263 485.6,274.89C495.05,271.6 504.68,269.79 511.85,267.95C511.884,267.941 511.919,267.937 511.954,267.937C512.179,267.937 512.364,268.122 512.364,268.347C512.364,268.452 512.323,268.554 512.25,268.63C507.763,273.423 503.563,278.593 499.65,284.14C494.1,292.01 491.37,300.41 497.96,308.04C502.08,312.8 507.713,316.85 514.86,320.19C529.65,327.11 547.26,332.74 563.98,334.95C580.82,337.18 598.05,329.25 608.06,316.09C608.553,315.437 609.133,314.48 609.8,313.22C609.88,313.063 610.042,312.964 610.218,312.964C610.296,312.964 610.372,312.983 610.44,313.02C617.927,316.78 625.25,320.81 632.41,325.11C643.077,331.503 652.777,339.14 661.51,348.02C661.577,348.089 661.615,348.182 661.615,348.278C661.615,348.438 661.512,348.58 661.36,348.63C659.107,349.383 656.42,350.28 653.3,351.32C650.153,352.373 646.043,354.423 640.97,357.47C634.4,361.41 630.32,366.73 631.95,374.54C633.62,382.54 639.23,388.62 647.75,388.87C648.77,388.897 650.497,388.583 652.93,387.93" style="fill:none;fill-rule:nonzero;stroke:rgb(128,128,128);stroke-width:2px;"/>
                                <path d="M471.52,532.05C481.2,532.62 489.08,529.43 496.04,522.5C506.74,511.86 510.49,497.61 510.17,482.63C509.74,462.15 499.63,442.91 476.86,441.57C454.09,440.22 441.79,458.14 438.95,478.43C436.87,493.26 438.92,507.86 448.29,519.68C454.39,527.38 461.84,531.47 471.52,532.05" style="fill:none;fill-rule:nonzero;stroke:rgb(128,128,128);stroke-width:2px;"/>
                                <path d="M274.18,537.59C285.51,538.33 295.35,529.79 300.32,520.28C305.1,511.127 307.493,501.48 307.5,491.34C307.5,481.74 306.24,473.07 301.87,464.88C297.337,456.387 290.647,451.227 281.8,449.4C271.67,447.3 261.62,451.21 255.63,459.38C246.79,471.46 244.63,487.4 246.22,501.96C247.92,517.55 256.75,536.46 274.18,537.59" style="fill:none;fill-rule:nonzero;stroke:rgb(128,128,128);stroke-width:2px;"/>
                                <path d="M375.5,515.05C374.22,516.677 373.18,518.18 372.38,519.56C370.51,522.77 370.17,528.16 373.74,530.22C378.31,532.86 383.74,526.63 386.2,523.5C388.67,520.37 393.48,513.65 389.85,509.82C387.02,506.82 381.85,508.4 379.16,510.96C378.007,512.06 376.787,513.423 375.5,515.05" style="fill:none;fill-rule:nonzero;stroke:rgb(128,128,128);stroke-width:2px;"/>
                                <path d="M329.609,511.655C326.78,514.22 328.331,520.607 333.044,525.805C337.757,531.003 343.963,533.17 346.791,530.605C349.62,528.04 348.069,521.653 343.356,516.455C338.643,511.257 332.437,509.09 329.609,511.655" style="fill:none;fill-rule:nonzero;stroke:rgb(128,128,128);stroke-width:2px;"/>
                                <path d="M444.57,758.96C449.783,756.36 452.483,752.047 452.67,746.02C453.43,720.99 452.17,699.97 452.77,684.69C453.03,678.27 452.6,674.94 452.82,667.4C452.913,664.053 452.74,660.823 452.3,657.71C452.297,657.698 452.295,657.686 452.295,657.673C452.295,657.596 452.358,657.533 452.435,657.533C452.488,657.533 452.536,657.563 452.56,657.61C455.22,661.67 457.647,665.613 459.84,669.44C461.487,672.313 463.883,676.257 467.03,681.27C481.637,704.523 494.837,725.143 506.63,743.13C510.7,749.34 514.92,755.56 520.59,758.15C526.743,760.963 533.027,761.9 539.44,760.96C539.779,760.907 540.114,760.82 540.44,760.7C542.867,759.773 545.13,758.69 547.23,757.45C552.84,754.16 554.55,746.9 554.67,740.74C554.93,727.45 554.38,713.9 554.66,700.42C554.8,693.527 554.777,684.213 554.59,672.48C554.24,650.76 555.14,620.94 554.7,604C554.593,599.76 554.29,596.737 553.79,594.93C551.07,585.06 536.28,583.8 527.95,584.96C515.96,586.63 513.65,594.31 513.73,604.75C513.91,628.81 514.007,653.143 514.02,677.75C514.02,680.07 514.193,682.53 514.54,685.13C514.547,685.17 514.542,685.21 514.526,685.247C514.481,685.352 514.352,685.4 514.241,685.351C514.205,685.336 514.173,685.311 514.15,685.28L509.31,678.6C509.23,678.494 509.17,678.379 509.13,678.26C508.297,676.027 505.953,671.91 502.1,665.91C489.893,646.877 478.763,629.833 468.71,614.78C463.87,607.533 459.423,601.327 455.37,596.16C451.003,590.593 445.507,587.407 438.88,586.6C423.2,584.68 409.5,592.37 409.3,609.76C409.09,629.02 410.37,648.79 410.35,667.84C410.31,694.78 410.22,719.397 410.08,741.69C410.02,750.89 415.78,759.61 425.69,760.5C431.623,761.033 437.76,760.577 444.1,759.13C444.259,759.097 444.417,759.04 444.57,758.96" style="fill:none;fill-rule:nonzero;stroke:rgb(128,128,128);stroke-width:2px;"/>
                                <path d="M790.01,760.62C790.837,760.613 791.33,760.593 791.49,760.56C813.69,755.71 833.86,740.75 843.44,720.2C860.28,684.07 854.53,634.71 816.14,613.83C803.84,607.14 789.32,604.65 775.12,605.87C773.822,605.979 772.536,605.535 771.58,604.65C767.413,600.75 761.687,596.39 754.4,591.57C752.867,590.557 751.14,589.903 749.22,589.61C749.185,589.605 749.149,589.602 749.114,589.602C748.77,589.602 748.476,589.859 748.43,590.2C748.103,592.527 748.41,594.75 749.35,596.87C751.097,600.823 752.61,603.933 753.89,606.2C754.003,606.406 754.137,606.597 754.29,606.77L755.82,608.51C755.913,608.613 755.965,608.747 755.965,608.886C755.965,609.1 755.843,609.296 755.65,609.39C751.94,611.21 746.9,612.52 742.86,614.69C734.027,619.417 726.727,625.923 720.96,634.21C715.83,641.57 712.06,648.12 709.78,655.75C701.97,681.95 704.7,715.29 723.42,736.86C737.6,753.193 755.447,761.533 776.96,761.88C778.747,761.907 780.757,761.793 782.99,761.54C785.47,761.26 789.22,761.04 789.38,760.92C789.627,760.731 789.859,760.62 790.01,760.62" style="fill:none;fill-rule:nonzero;stroke:rgb(128,128,128);stroke-width:2px;"/>
                                <path d="M607.02,696.99C607.015,696.953 607.013,696.916 607.014,696.879C607.02,696.445 607.377,696.094 607.805,696.1C607.843,696.1 607.882,696.104 607.92,696.11C613.04,696.93 617.91,696.44 623.11,696.37C636.137,696.21 656.433,696.14 684,696.16C687.36,696.16 694.97,695.61 696.59,692.54C699.01,687.993 700.183,683.067 700.11,677.76C700.01,670.993 699.747,665.903 699.32,662.49C697.84,650.58 693.22,637.31 685.14,628.13C675.253,616.897 663.127,610.26 648.76,608.22C641.46,607.19 633.82,607.71 626.74,607.98C600.53,609 578.31,627.81 569.62,652.01C567.853,656.923 566.807,660.177 566.48,661.77C562.11,683.14 563.62,708.97 574.51,727.52C580.117,737.067 587.827,745.027 597.64,751.4C611.17,760.17 628.73,762.99 644.64,761.43C658.427,760.077 670.853,755.003 681.92,746.21C687.67,741.64 695.14,733.14 694.5,725.2C694,718.95 686.02,713.07 680.88,710.81C675.62,708.49 670.41,707.3 665.74,711.26C662.373,714.113 659.34,716.407 656.64,718.14C646.4,724.73 633.18,725.69 622.33,720.05C614.02,715.73 608.25,706.37 607.02,696.99" style="fill:none;fill-rule:nonzero;stroke:rgb(128,128,128);stroke-width:2px;"/>
                                <path d="M535.71,291C535.691,291.022 535.673,291.046 535.657,291.07C535.492,291.329 535.566,291.676 535.82,291.838C535.846,291.854 535.872,291.868 535.9,291.88C545.153,295.813 554.9,298.413 565.14,299.68C570.78,300.38 574.62,298.88 577.99,294.71C586.52,284.14 589.52,269.24 589.19,256.03C588.8,240.87 581.4,227.55 570.19,217.81C569.61,217.31 568.93,216.907 568.15,216.6C568.119,216.588 568.087,216.578 568.054,216.571C567.722,216.498 567.388,216.715 567.314,217.053C567.307,217.085 567.302,217.117 567.3,217.15C566.64,228.963 564.37,240.113 560.49,250.6C557.39,258.993 552.703,268.123 546.43,277.99C544.403,281.177 542.727,283.45 541.4,284.81C541.06,285.157 539.163,287.22 535.71,291" style="fill:none;fill-rule:nonzero;stroke:rgb(128,128,128);stroke-width:2px;"/>
                                <path d="M308.51,231.83C308.506,231.548 308.273,231.317 307.99,231.317C307.878,231.317 307.77,231.353 307.68,231.42L303.4,234.73C303.194,234.889 303.006,235.074 302.84,235.28C298.86,240.24 295.423,245.157 292.53,250.03C284.38,263.73 282.54,281.58 284.99,296.89C285.12,297.71 284.77,298.64 284.92,299.18C284.922,299.186 284.923,299.192 284.925,299.197C285.027,299.516 285.369,299.696 285.682,299.596C285.688,299.594 285.694,299.592 285.7,299.59C286.773,299.223 287.853,298.747 288.94,298.16C298.847,292.833 308.983,288.44 319.35,284.98C319.75,284.844 320.02,284.466 320.02,284.043C320.02,283.9 319.989,283.76 319.93,283.63C312.317,267.023 308.51,249.757 308.51,231.83" style="fill:none;fill-rule:nonzero;stroke:rgb(128,128,128);stroke-width:2px;"/>
                                <path d="M779.28,642.5C768.27,642.21 758.21,650.49 754.23,660.21C748.71,673.703 748.01,687.413 752.13,701.34C756.87,717.39 772.74,727.26 788.83,720.04C798.09,715.89 804.99,705.41 807.45,696.05C813.14,674.41 807.88,643.23 779.28,642.5" style="fill:none;fill-rule:nonzero;stroke:rgb(128,128,128);stroke-width:2px;"/>
                                <path d="M660.15,666.88C660.1,655.61 654.59,645.62 643.64,641.75C625.5,635.34 609.81,650.1 607.33,667.22C607.327,667.236 607.326,667.252 607.324,667.267C607.302,667.579 607.544,667.855 607.861,667.878C607.877,667.88 607.894,667.88 607.91,667.88L659.69,667.34C659.942,667.34 660.15,667.132 660.15,666.88" style="fill:none;fill-rule:nonzero;stroke:rgb(128,128,128);stroke-width:2px;"/>
                            </g>
                            <path d="M647.75,388.87C639.23,388.62 633.62,382.54 631.95,374.54C630.32,366.73 634.4,361.41 640.97,357.47C646.043,354.423 650.153,352.373 653.3,351.32C656.42,350.28 659.107,349.383 661.36,348.63C661.512,348.58 661.615,348.438 661.615,348.278C661.615,348.182 661.577,348.089 661.51,348.02C652.777,339.14 643.077,331.503 632.41,325.11C625.25,320.81 617.927,316.78 610.44,313.02C610.372,312.983 610.296,312.964 610.218,312.964C610.042,312.964 609.88,313.063 609.8,313.22C609.133,314.48 608.553,315.437 608.06,316.09C598.05,329.25 580.82,337.18 563.98,334.95C547.26,332.74 529.65,327.11 514.86,320.19C507.713,316.85 502.08,312.8 497.96,308.04C491.37,300.41 494.1,292.01 499.65,284.14C503.563,278.593 507.763,273.423 512.25,268.63C512.323,268.554 512.364,268.452 512.364,268.347C512.364,268.122 512.179,267.937 511.954,267.937C511.919,267.937 511.884,267.941 511.85,267.95C504.68,269.79 495.05,271.6 485.6,274.89C475.907,278.263 465.58,282.183 454.62,286.65C453.253,287.203 450.39,288.08 446.03,289.28C441.92,290.42 437.94,289.54 434.99,286.21C427.92,278.21 433.8,264.98 437.71,255.98C438.33,254.547 438.673,253.16 438.74,251.82C438.743,251.741 438.741,251.661 438.734,251.583C438.645,250.621 437.776,249.904 436.809,249.994C436.732,250.001 436.656,250.013 436.58,250.03C428.973,251.783 421.487,254.737 414.12,258.89C395.433,269.423 378.407,282.353 363.04,297.68C357.11,303.6 352.65,310.62 344.75,314.24C339.77,316.53 333.95,317.29 328.52,319.08C307.633,325.967 288.62,335.263 271.48,346.97C258.553,355.803 246.137,366.803 234.23,379.97C216.61,399.45 203.74,423.07 197.45,449.32C194.617,461.16 192.83,473.14 192.09,485.26C191.71,491.42 191.337,497.587 190.97,503.76C190.51,511.42 189.43,517.14 185.14,523.4C184.093,524.927 181.367,528.53 176.96,534.21C173.12,539.163 170.07,544.88 167.81,551.36C157.74,580.29 164.15,612.36 182.1,636.95C184.933,640.843 187.7,643.89 190.4,646.09C200.4,654.27 212.35,661.69 224.92,666.37C236.287,670.603 245.54,673.357 252.68,674.63C277.46,679.03 286.07,680.22 310.81,684.99C322.317,687.203 336.39,689.267 353.03,691.18C358.023,691.753 362.097,692.617 365.25,693.77C368.87,695.08 373.19,698.68 376.78,701.45C380.64,704.43 384.98,707.76 386.73,712.05C386.731,712.053 386.732,712.056 386.734,712.059C386.941,712.573 386.685,713.168 386.166,713.377C386.164,713.378 386.162,713.379 386.16,713.38L378.42,716.47C377.794,716.715 377.272,717.179 376.95,717.78C375.923,719.687 375.207,721.437 374.8,723.03C373.353,728.623 371.983,733.833 370.69,738.66C369.963,741.393 368.837,743.797 367.31,745.87C366.939,746.369 366.352,746.664 365.729,746.664C365.228,746.664 364.745,746.473 364.38,746.13C363.873,745.65 363.363,745.04 362.85,744.3C360.937,741.54 357.967,737.36 353.94,731.76C352.227,729.38 349.387,727.667 345.42,726.62C338.187,724.707 330.357,722.977 321.93,721.43C315.177,720.19 307.333,718.517 298.4,716.41C281.627,712.463 269.263,709.487 261.31,707.48C250.87,704.84 241.34,701.85 231.8,699.46C229.14,698.793 222.653,696.623 212.34,692.95C205.987,690.683 200.623,688.383 196.25,686.05C187.043,681.123 180.563,677.333 176.81,674.68C172.89,671.92 166.2,666.87 162.08,662.8C148.58,649.473 138.91,634.23 133.07,617.07C120.96,581.48 126.02,534.95 153.45,507.25C154.563,506.123 155.103,504.727 155.07,503.06C154.5,477.25 157.55,449.75 165.66,425.4C166.66,422.393 169.33,415.977 173.67,406.15C177.85,396.703 182.923,387.617 188.89,378.89C205.763,354.223 226.77,333.76 251.91,317.5C252.509,317.116 252.761,316.361 252.51,315.7C242.08,288 246.81,255.88 261.63,230.78C270.98,214.93 285.82,200.61 303.18,193.97C310.67,191.1 321.5,191.17 328.53,195.19C341.29,202.48 341.03,215.03 341.48,227.87C341.86,238.86 344.81,250.44 348.18,261.51C348.305,261.915 348.683,262.193 349.107,262.193C349.292,262.193 349.474,262.14 349.63,262.04C352.4,260.27 355.32,257.53 357.42,255.93C363.5,251.31 369.773,246.677 376.24,242.03C391.367,231.143 407.67,222.937 425.15,217.41C437.18,213.6 454.42,211.71 464.64,220.78C471.47,226.84 473.23,235.84 471.11,244.49C471.105,244.51 471.103,244.531 471.103,244.552C471.103,244.7 471.225,244.822 471.373,244.822C471.41,244.822 471.446,244.815 471.48,244.8C486.447,238.18 502.207,234.683 518.76,234.31C521.56,234.25 524.71,234.197 528.21,234.15C528.744,234.144 529.238,233.859 529.51,233.4C530.15,232.313 530.773,230.553 531.38,228.12C532.84,222.28 534.087,215.603 535.12,208.09C536.067,201.217 537.097,196.58 538.21,194.18C544.42,180.73 559.15,176.15 573.25,180.35C591.43,185.77 606.45,201.53 614.82,218.38C624.78,238.447 627.117,259.423 621.83,281.31C621.728,281.73 621.949,282.167 622.35,282.34C626.58,284.15 631.73,286.01 635.15,287.67C647.25,293.55 658.54,300.737 669.02,309.23C679.887,318.043 689.353,328.037 697.42,339.21C697.622,339.501 697.946,339.685 698.3,339.71C702.68,340.06 706.79,339.6 711.95,339.75C732.92,340.38 751.06,343.59 769.77,351.97C781.143,357.07 789.953,364.503 796.2,374.27C799.22,378.99 800.99,384.913 801.51,392.04C802.86,410.63 793.88,430.18 782.69,444.96C773.52,457.08 764.61,467.2 753.11,475.77C752.825,475.981 752.657,476.315 752.657,476.67C752.657,477.063 752.863,477.428 753.2,477.63C754.26,478.263 755.23,478.773 756.11,479.16C761.043,481.32 766.413,483.773 772.22,486.52C783.107,491.667 793.41,498.523 803.13,507.09C811.66,514.61 817.06,525.66 813.16,536.88C809.95,546.13 803.73,553.96 796.25,561.52C787.997,569.873 779.593,577.58 771.04,584.64C770.12,585.4 768.791,585.437 767.83,584.73L740.62,564.79C740.276,564.541 740.176,564.067 740.39,563.7C741.63,561.587 743.17,559.773 745.01,558.26C751.51,552.927 758.03,547.613 764.57,542.32C767.883,539.64 771.407,536.327 775.14,532.38C776.673,530.753 776.65,529.28 775.07,527.96C769.85,523.62 765.15,521.49 757.32,517.49C744.12,510.75 730.18,505.04 714.21,498.29C710.817,496.857 707.213,494.893 703.4,492.4C696.54,487.9 693.53,478.71 698.4,471.83C699.353,470.49 701.807,468.55 705.76,466.01C718.48,457.83 729.78,450.14 740.07,440.34C749.83,431.053 757.243,420.123 762.31,407.55C764.3,402.63 766.22,394.57 762.96,389.87C760.44,386.257 756.72,383.603 751.8,381.91C739.2,377.57 725.933,375.447 712,375.54C710.3,375.553 707.713,375.627 704.24,375.76C701.347,375.873 698.793,376.167 696.58,376.64C693.313,377.333 689.963,377.85 686.53,378.19C686.278,378.21 686.025,378.267 685.78,378.36C683.68,379.14 680.823,379.73 677.21,380.13C676.865,380.17 676.522,380.254 676.19,380.38C675.17,380.78 671.993,381.817 666.66,383.49C666.573,383.517 666.223,383.637 665.61,383.85C663.983,384.41 662.983,384.763 662.61,384.91C661.17,385.463 659.647,385.983 658.04,386.47C656.453,386.957 654.75,387.443 652.93,387.93C650.497,388.583 648.77,388.897 647.75,388.87ZM535.71,291C535.691,291.022 535.673,291.046 535.657,291.07C535.492,291.329 535.566,291.676 535.82,291.838C535.846,291.854 535.872,291.868 535.9,291.88C545.153,295.813 554.9,298.413 565.14,299.68C570.78,300.38 574.62,298.88 577.99,294.71C586.52,284.14 589.52,269.24 589.19,256.03C588.8,240.87 581.4,227.55 570.19,217.81C569.61,217.31 568.93,216.907 568.15,216.6C568.119,216.588 568.087,216.578 568.054,216.571C567.722,216.498 567.388,216.715 567.314,217.053C567.307,217.085 567.302,217.117 567.3,217.15C566.64,228.963 564.37,240.113 560.49,250.6C557.39,258.993 552.703,268.123 546.43,277.99C544.403,281.177 542.727,283.45 541.4,284.81C541.06,285.157 539.163,287.22 535.71,291ZM308.51,231.83C308.506,231.548 308.273,231.317 307.99,231.317C307.878,231.317 307.77,231.353 307.68,231.42L303.4,234.73C303.194,234.889 303.006,235.074 302.84,235.28C298.86,240.24 295.423,245.157 292.53,250.03C284.38,263.73 282.54,281.58 284.99,296.89C285.12,297.71 284.77,298.64 284.92,299.18C284.922,299.186 284.923,299.192 284.925,299.197C285.027,299.516 285.369,299.696 285.682,299.596C285.688,299.594 285.694,299.592 285.7,299.59C286.773,299.223 287.853,298.747 288.94,298.16C298.847,292.833 308.983,288.44 319.35,284.98C319.75,284.844 320.02,284.466 320.02,284.043C320.02,283.9 319.989,283.76 319.93,283.63C312.317,267.023 308.51,249.757 308.51,231.83Z" style="fill:white;fill-rule:nonzero;"/>
                            <path d="M476.86,441.57C499.63,442.91 509.74,462.15 510.17,482.63C510.49,497.61 506.74,511.86 496.04,522.5C489.08,529.43 481.2,532.62 471.52,532.05C461.84,531.47 454.39,527.38 448.29,519.68C438.92,507.86 436.87,493.26 438.95,478.43C441.79,458.14 454.09,440.22 476.86,441.57Z" style="fill:white;fill-rule:nonzero;"/>
                            <path d="M274.18,537.59C256.75,536.46 247.92,517.55 246.22,501.96C244.63,487.4 246.79,471.46 255.63,459.38C261.62,451.21 271.67,447.3 281.8,449.4C290.647,451.227 297.337,456.387 301.87,464.88C306.24,473.07 307.5,481.74 307.5,491.34C307.493,501.48 305.1,511.127 300.32,520.28C295.35,529.79 285.51,538.33 274.18,537.59Z" style="fill:white;fill-rule:nonzero;"/>
                            <path d="M386.2,523.5C383.74,526.63 378.31,532.86 373.74,530.22C370.17,528.16 370.51,522.77 372.38,519.56C373.18,518.18 374.22,516.677 375.5,515.05C376.787,513.423 378.007,512.06 379.16,510.96C381.85,508.4 387.02,506.82 389.85,509.82C393.48,513.65 388.67,520.37 386.2,523.5Z" style="fill:white;fill-rule:nonzero;"/>
                            <g transform="matrix(-0.671721,-0.740805,0.740805,-0.671721,338.2,521.13)">
                                <ellipse cx="0" cy="0" rx="12.79" ry="6.96" style="fill:white;"/>
                            </g>
                            <path d="M444.1,759.13C437.76,760.577 431.623,761.033 425.69,760.5C415.78,759.61 410.02,750.89 410.08,741.69C410.22,719.397 410.31,694.78 410.35,667.84C410.37,648.79 409.09,629.02 409.3,609.76C409.5,592.37 423.2,584.68 438.88,586.6C445.507,587.407 451.003,590.593 455.37,596.16C459.423,601.327 463.87,607.533 468.71,614.78C478.763,629.833 489.893,646.877 502.1,665.91C505.953,671.91 508.297,676.027 509.13,678.26C509.17,678.379 509.23,678.494 509.31,678.6L514.15,685.28C514.173,685.311 514.205,685.336 514.241,685.351C514.352,685.4 514.481,685.352 514.526,685.247C514.542,685.21 514.547,685.17 514.54,685.13C514.193,682.53 514.02,680.07 514.02,677.75C514.007,653.143 513.91,628.81 513.73,604.75C513.65,594.31 515.96,586.63 527.95,584.96C536.28,583.8 551.07,585.06 553.79,594.93C554.29,596.737 554.593,599.76 554.7,604C555.14,620.94 554.24,650.76 554.59,672.48C554.777,684.213 554.8,693.527 554.66,700.42C554.38,713.9 554.93,727.45 554.67,740.74C554.55,746.9 552.84,754.16 547.23,757.45C545.13,758.69 542.867,759.773 540.44,760.7C540.114,760.82 539.779,760.907 539.44,760.96C533.027,761.9 526.743,760.963 520.59,758.15C514.92,755.56 510.7,749.34 506.63,743.13C494.837,725.143 481.637,704.523 467.03,681.27C463.883,676.257 461.487,672.313 459.84,669.44C457.647,665.613 455.22,661.67 452.56,657.61C452.536,657.563 452.488,657.533 452.435,657.533C452.358,657.533 452.295,657.596 452.295,657.673C452.295,657.686 452.297,657.698 452.3,657.71C452.74,660.823 452.913,664.053 452.82,667.4C452.6,674.94 453.03,678.27 452.77,684.69C452.17,699.97 453.43,720.99 452.67,746.02C452.483,752.047 449.783,756.36 444.57,758.96C444.417,759.04 444.259,759.097 444.1,759.13Z" style="fill:white;fill-rule:nonzero;"/>
                            <path d="M789.38,760.92C789.22,761.04 785.47,761.26 782.99,761.54C780.757,761.793 778.747,761.907 776.96,761.88C755.447,761.533 737.6,753.193 723.42,736.86C704.7,715.29 701.97,681.95 709.78,655.75C712.06,648.12 715.83,641.57 720.96,634.21C726.727,625.923 734.027,619.417 742.86,614.69C746.9,612.52 751.94,611.21 755.65,609.39C755.843,609.296 755.965,609.1 755.965,608.886C755.965,608.747 755.913,608.613 755.82,608.51L754.29,606.77C754.137,606.597 754.003,606.406 753.89,606.2C752.61,603.933 751.097,600.823 749.35,596.87C748.41,594.75 748.103,592.527 748.43,590.2C748.476,589.859 748.77,589.602 749.114,589.602C749.149,589.602 749.185,589.605 749.22,589.61C751.14,589.903 752.867,590.557 754.4,591.57C761.687,596.39 767.413,600.75 771.58,604.65C772.536,605.535 773.822,605.979 775.12,605.87C789.32,604.65 803.84,607.14 816.14,613.83C854.53,634.71 860.28,684.07 843.44,720.2C833.86,740.75 813.69,755.71 791.49,760.56C791.33,760.593 790.837,760.613 790.01,760.62C789.859,760.62 789.627,760.731 789.38,760.92ZM779.28,642.5C768.27,642.21 758.21,650.49 754.23,660.21C748.71,673.703 748.01,687.413 752.13,701.34C756.87,717.39 772.74,727.26 788.83,720.04C798.09,715.89 804.99,705.41 807.45,696.05C813.14,674.41 807.88,643.23 779.28,642.5Z" style="fill:white;fill-rule:nonzero;"/>
                            <path d="M607.02,696.99C608.25,706.37 614.02,715.73 622.33,720.05C633.18,725.69 646.4,724.73 656.64,718.14C659.34,716.407 662.373,714.113 665.74,711.26C670.41,707.3 675.62,708.49 680.88,710.81C686.02,713.07 694,718.95 694.5,725.2C695.14,733.14 687.67,741.64 681.92,746.21C670.853,755.003 658.427,760.077 644.64,761.43C628.73,762.99 611.17,760.17 597.64,751.4C587.827,745.027 580.117,737.067 574.51,727.52C563.62,708.97 562.11,683.14 566.48,661.77C566.807,660.177 567.853,656.923 569.62,652.01C578.31,627.81 600.53,609 626.74,607.98C633.82,607.71 641.46,607.19 648.76,608.22C663.127,610.26 675.253,616.897 685.14,628.13C693.22,637.31 697.84,650.58 699.32,662.49C699.747,665.903 700.01,670.993 700.11,677.76C700.183,683.067 699.01,687.993 696.59,692.54C694.97,695.61 687.36,696.16 684,696.16C656.433,696.14 636.137,696.21 623.11,696.37C617.91,696.44 613.04,696.93 607.92,696.11C607.882,696.104 607.843,696.1 607.805,696.1C607.377,696.094 607.02,696.445 607.014,696.879C607.013,696.916 607.015,696.953 607.02,696.99ZM660.15,666.88C660.1,655.61 654.59,645.62 643.64,641.75C625.5,635.34 609.81,650.1 607.33,667.22C607.327,667.236 607.326,667.252 607.324,667.267C607.302,667.579 607.544,667.855 607.861,667.878C607.877,667.88 607.894,667.88 607.91,667.88L659.69,667.34C659.942,667.34 660.15,667.132 660.15,666.88Z" style="fill:white;fill-rule:nonzero;"/>
                        </g>
                    </g>
                </g>
            </g>
        </g>
    </g>
    <defs>
        <linearGradient id="_Linear1" x1="0" y1="0" x2="1" y2="0" gradientUnits="userSpaceOnUse" gradientTransform="matrix(469,0,0,406,43,258)"><stop offset="0" style="stop-color:rgb(54,54,54);stop-opacity:1"/><stop offset="0.76" style="stop-color:rgb(13,13,13);stop-opacity:1"/><stop offset="1" style="stop-color:rgb(35,35,35);stop-opacity:1"/></linearGradient>
    </defs>
</svg>
